<svg width="24" height="24" viewBox="0 0 24 24" fill="none" xmlns="http://www.w3.org/2000/svg">
<mask id="mask0_79_2228" style="mask-type:alpha" maskUnits="userSpaceOnUse" x="0" y="0" width="24" height="24">
<rect width="24" height="24" fill="#D9D9D9"/>
</mask>
<g mask="url(#mask0_79_2228)">
<path d="M13 14.4L14.4 13L12 10.6V6H10V11.4L13 14.4ZM9.2 17.775C9.46667 16.975 9.9375 16.3125 10.6125 15.7875C11.2875 15.2625 12.0667 15 12.95 15H16.75C17.15 14.4333 17.4583 13.8125 17.675 13.1375C17.8917 12.4625 18 11.75 18 11C18 9.05 17.3208 7.39583 15.9625 6.0375C14.6042 4.67917 12.95 4 11 4C9.05 4 7.39583 4.67917 6.0375 6.0375C4.67917 7.39583 4 9.05 4 11C4 12.6333 4.4875 14.0708 5.4625 15.3125C6.4375 16.5542 7.68333 17.375 9.2 17.775ZM13 23C12.0333 23 11.1833 22.6958 10.45 22.0875C9.71667 21.4792 9.25833 20.7167 9.075 19.8C7.04167 19.3667 5.35417 18.3333 4.0125 16.7C2.67083 15.0667 2 13.1667 2 11C2 8.5 2.875 6.375 4.625 4.625C6.375 2.875 8.5 2 11 2C13.5 2 15.625 2.875 17.375 4.625C19.125 6.375 20 8.5 20 11C20 11.7167 19.9208 12.4125 19.7625 13.0875C19.6042 13.7625 19.375 14.4 19.075 15C20.175 15 21.1042 15.3917 21.8625 16.175C22.6208 16.9583 23 17.9 23 19C23 20.1 22.6083 21.0417 21.825 21.825C21.0417 22.6083 20.1 23 19 23H13ZM13 21H19C19.55 21 20.0208 20.8042 20.4125 20.4125C20.8042 20.0208 21 19.55 21 19C21 18.45 20.8042 17.9792 20.4125 17.5875C20.0208 17.1958 19.55 17 19 17H13C12.45 17 11.9792 17.1958 11.5875 17.5875C11.1958 17.9792 11 18.45 11 19C11 19.55 11.1958 20.0208 11.5875 20.4125C11.9792 20.8042 12.45 21 13 21ZM13 20C12.7167 20 12.4792 19.9042 12.2875 19.7125C12.0958 19.5208 12 19.2833 12 19C12 18.7167 12.0958 18.4792 12.2875 18.2875C12.4792 18.0958 12.7167 18 13 18C13.2833 18 13.5208 18.0958 13.7125 18.2875C13.9042 18.4792 14 18.7167 14 19C14 19.2833 13.9042 19.5208 13.7125 19.7125C13.5208 19.9042 13.2833 20 13 20ZM16 20C15.7167 20 15.4792 19.9042 15.2875 19.7125C15.0958 19.5208 15 19.2833 15 19C15 18.7167 15.0958 18.4792 15.2875 18.2875C15.4792 18.0958 15.7167 18 16 18C16.2833 18 16.5208 18.0958 16.7125 18.2875C16.9042 18.4792 17 18.7167 17 19C17 19.2833 16.9042 19.5208 16.7125 19.7125C16.5208 19.9042 16.2833 20 16 20ZM19 20C18.7167 20 18.4792 19.9042 18.2875 19.7125C18.0958 19.5208 18 19.2833 18 19C18 18.7167 18.0958 18.4792 18.2875 18.2875C18.4792 18.0958 18.7167 18 19 18C19.2833 18 19.5208 18.0958 19.7125 18.2875C19.9042 18.4792 20 18.7167 20 19C20 19.2833 19.9042 19.5208 19.7125 19.7125C19.5208 19.9042 19.2833 20 19 20Z" fill="#003DD1"/>
</g>
</svg>
