<svg width="46" height="103" viewBox="0 0 46 103" fill="none" xmlns="http://www.w3.org/2000/svg">
<path d="M5.78499 2.15427C5.14479 1.25004 5.79139 0 6.89931 0H39.1017C40.2096 0 40.8562 1.25004 40.216 2.15427L33.6308 11.4554C33.3749 11.8169 32.9594 12.0318 32.5165 12.0318H13.4845C13.0416 12.0318 12.6261 11.8169 12.3702 11.4554L5.78499 2.15427Z" fill="white"/>
<path d="M3.47213 88.6133C2.39046 87.8417 2.93634 86.1365 4.26503 86.1365H41.735C43.0637 86.1365 43.6095 87.8417 42.5279 88.6133L23.7929 101.978C23.3185 102.316 22.6815 102.316 22.2071 101.978L3.47213 88.6133Z" fill="white"/>
<path d="M41.7412 88.5977H4.25973L12.7782 14.2191H33.2227L41.7412 88.5977Z" fill="white"/>
</svg>
